<?xml version="1.0" standalone="no"?>
<!DOCTYPE svg PUBLIC "-//W3C//DTD SVG 20010904//EN"
 "http://www.w3.org/TR/2001/REC-SVG-20010904/DTD/svg10.dtd">
<svg version="1.0" xmlns="http://www.w3.org/2000/svg"
 width="263.000000pt" height="314.000000pt" viewBox="0 0 263.000000 314.000000"
 preserveAspectRatio="xMidYMid meet">

<g transform="translate(0.000000,314.000000) scale(0.100000,-0.100000)"
fill="#000000" stroke="none">
<path d="M970 3001 c-336 -93 -584 -167 -609 -182 -37 -23 -64 -72 -64 -120 0
-33 23 -144 74 -369 11 -47 27 -116 36 -155 8 -38 26 -110 39 -160 84 -315
106 -429 105 -525 -1 -52 -4 -104 -7 -114 -5 -14 -2 -17 7 -13 8 3 21 8 30 12
21 8 35 -40 19 -61 -13 -14 -4 -38 11 -29 5 4 6 -7 3 -23 -3 -16 0 -40 6 -53
18 -34 60 -83 60 -70 0 10 -16 78 -85 366 -185 767 -275 1160 -275 1193 0 60
35 97 117 122 67 20 83 19 83 -5 0 -33 37 -36 122 -11 46 14 120 34 165 46 90
24 100 31 105 74 3 26 10 30 67 48 70 21 94 19 134 -12 31 -25 39 -48 102
-315 171 -715 345 -1463 345 -1480 1 -19 1 -19 11 -2 12 20 22 240 13 270 -4
12 -12 17 -25 14 -31 -8 -42 19 -84 216 -13 62 -38 152 -55 201 -17 48 -33
113 -35 145 -3 31 -12 85 -21 121 -9 36 -26 112 -39 170 -12 58 -41 177 -64
265 -22 88 -52 207 -66 264 -29 121 -57 165 -113 181 -44 12 -33 13 -112 -9z"/>
<path d="M1537 1086 c-3 -8 -19 -21 -34 -29 -25 -13 -243 -78 -556 -167 -54
-15 -100 -29 -102 -32 -7 -7 34 -83 43 -80 4 2 8 -5 10 -15 7 -43 12 -43 52
-2 26 28 45 39 55 35 9 -3 21 -6 26 -6 5 0 9 -8 9 -17 0 -15 2 -16 10 -3 8 13
10 12 10 -4 0 -17 3 -16 25 8 13 14 31 26 38 26 18 0 12 -26 -27 -139 -14 -41
-26 -77 -26 -80 0 -3 15 21 33 54 18 33 52 92 77 132 45 72 45 72 85 68 22 -2
45 -11 51 -20 10 -14 15 -8 29 37 10 29 24 57 32 61 7 5 11 12 8 17 -3 5 5 12
19 16 13 3 26 15 29 26 5 17 9 18 27 8 13 -7 20 -8 16 -2 -6 11 21 25 33 17 8
-5 44 95 37 102 -2 2 -6 -3 -9 -11z"/>
<path d="M710 944 c0 -10 -7 -26 -17 -36 -15 -17 -15 -18 1 -18 9 0 19 7 22
15 4 8 10 13 14 10 5 -3 6 4 3 15 -7 26 -23 36 -23 14z"/>
<path d="M856 731 c-4 -7 -5 -15 -2 -18 9 -9 19 4 14 18 -4 11 -6 11 -12 0z"/>
</g>
</svg>
